<?xml version="1.0" encoding="iso-8859-1"?>
<!-- Generator: Adobe Illustrator 19.0.0, SVG Export Plug-In . SVG Version: 6.00 Build 0)  -->
<svg version="1.1" id="Layer_1" xmlns="http://www.w3.org/2000/svg" xmlns:xlink="http://www.w3.org/1999/xlink" x="0px" y="0px"
	 viewBox="0 0 490 490" style="enable-background:new 0 0 490 490;" xml:space="preserve">
<g>
	<g>
		<g>
			<path d="M479.999,285h-15V173.889l19.548-9.982c3.373-1.723,5.484-5.204,5.452-8.991c-0.032-3.788-2.202-7.232-5.604-8.897
				l-235-115c-2.773-1.358-6.018-1.358-8.791,0l-235,115c-3.402,1.664-5.572,5.109-5.604,8.897
				c-0.032,3.788,2.079,7.269,5.452,8.991l79.547,40.62V450c0,5.523,4.477,10,10,10h300c5.522,0,10-4.477,10-10V204.527l40-20.426
				V285h-15c-5.522,0-10,4.477-10,10v90c0,5.523,4.478,10,10,10h50c5.522,0,10-4.477,10-10v-90
				C489.999,289.477,485.522,285,479.999,285z M384.999,440h-280V214.74l135.452,69.167c1.429,0.729,2.988,1.094,4.548,1.094
				s3.119-0.365,4.548-1.094l135.452-69.167V440z M244.999,263.772L32.361,155.191L244.999,51.134l212.639,104.057L244.999,263.772z
				 M469.999,375h-30v-70h30V375z"/>
			<rect x="229.999" y="140" width="30" height="20"/>
		</g>
	</g>
</g>
<g>
</g>
<g>
</g>
<g>
</g>
<g>
</g>
<g>
</g>
<g>
</g>
<g>
</g>
<g>
</g>
<g>
</g>
<g>
</g>
<g>
</g>
<g>
</g>
<g>
</g>
<g>
</g>
<g>
</g>
</svg>
