<?xml version="1.0" encoding="iso-8859-1"?>
<!-- Generator: Adobe Illustrator 19.0.0, SVG Export Plug-In . SVG Version: 6.00 Build 0)  -->
<svg version="1.1" id="Layer_1" xmlns="http://www.w3.org/2000/svg" xmlns:xlink="http://www.w3.org/1999/xlink" x="0px" y="0px"
	 viewBox="0 0 512 512" style="enable-background:new 0 0 512 512;" xml:space="preserve">
<g>
	<g>
		<path d="M251.509,184.14c-64.39,0-116.772,52.382-116.772,116.772s52.382,116.772,116.772,116.772s116.772-52.382,116.772-116.772
			S315.899,184.14,251.509,184.14z M251.509,399.719c-54.482,0-98.807-44.325-98.807-98.807s44.325-98.807,98.807-98.807
			s98.807,44.325,98.807,98.807S305.991,399.719,251.509,399.719z"/>
	</g>
</g>
<g>
	<g>
		<path d="M251.509,139.228c-89.154,0-161.684,72.531-161.684,161.684s72.531,161.684,161.684,161.684
			s161.684-72.531,161.684-161.684S340.662,139.228,251.509,139.228z M251.509,444.632c-79.246,0-143.719-64.474-143.719-143.719
			s64.474-143.719,143.719-143.719s143.719,64.474,143.719,143.719S330.754,444.632,251.509,444.632z"/>
	</g>
</g>
<g>
	<g>
		<path d="M187.239,85.333c-6.488-20.738-35.111-35.93-70.467-35.93c-40.294,0-71.86,19.728-71.86,44.912
			c0,25.184,31.566,44.912,71.86,44.912c35.356,0,63.979-15.192,70.467-35.93h225.954V85.333H187.239z M116.772,121.263
			c-31.763,0-53.895-14.202-53.895-26.947s22.132-26.947,53.895-26.947c31.763,0,53.895,14.202,53.895,26.947
			S148.535,121.263,116.772,121.263z"/>
	</g>
</g>
<g>
	<g>
		<path d="M62.877,166.175c-4.961,0-8.982,4.022-8.982,8.982v71.864c0,4.952-4.022,8.978-8.965,8.978h-0.018v-80.842H26.947V256
			H26.93c-5.026,0-8.965-3.943-8.965-8.978v-71.864c0-4.961-4.022-8.982-8.982-8.982c-4.961,0-8.982,4.022-8.982,8.982v71.864
			c0,14.855,12.079,26.943,26.93,26.943h0.018v170.667h17.965V273.965h0.018c14.851,0,26.93-12.088,26.93-26.943v-71.864
			C71.86,170.197,67.838,166.175,62.877,166.175z"/>
	</g>
</g>
<g>
	<g>
		<path d="M461.443,166.816c-2.772-1.101-5.895-0.768-8.373,0.903c-2.469,1.671-3.947,4.456-3.947,7.439v260.491
			c0,4.961,4.022,8.982,8.982,8.982s8.982-4.022,8.982-8.982v-89.618c0.022,0.873,0.171,1.763,0.461,2.636
			c1.566,4.697,6.64,7.263,11.364,5.68c3.386-1.127,33.088-13.228,33.088-89.364C512,187.925,463.504,167.645,461.443,166.816z
			 M473.228,337.303c-3.693,1.232-6.053,4.632-6.14,8.311V191.895c11.54,10.404,26.947,31.987,26.947,73.088
			C494.035,327.373,473.167,337.303,473.228,337.303z"/>
	</g>
</g>
<g>
</g>
<g>
</g>
<g>
</g>
<g>
</g>
<g>
</g>
<g>
</g>
<g>
</g>
<g>
</g>
<g>
</g>
<g>
</g>
<g>
</g>
<g>
</g>
<g>
</g>
<g>
</g>
<g>
</g>
</svg>
