<?xml version="1.0" encoding="iso-8859-1"?>
<!-- Generator: Adobe Illustrator 19.0.0, SVG Export Plug-In . SVG Version: 6.00 Build 0)  -->
<svg version="1.1" id="Layer_1" xmlns="http://www.w3.org/2000/svg" xmlns:xlink="http://www.w3.org/1999/xlink" x="0px" y="0px"
	 viewBox="0 0 512 512" style="enable-background:new 0 0 512 512;" xml:space="preserve">
<g transform="translate(1 1)">
	<g>
		<g>
			<path d="M485.4-1H109.933c-14.507,0-25.6,11.093-25.6,25.6v25.6H24.6C10.093,50.2-1,61.293-1,75.8v409.6
				c0,14.507,11.093,25.6,25.6,25.6h324.267c14.507,0,25.6-11.093,25.6-25.6v-384c0-18.773,15.36-34.133,34.133-34.133
				c18.773,0,34.133,15.36,34.133,34.133v298.667c0,18.773,15.36,34.133,34.133,34.133c18.773,0,34.133-15.36,34.133-34.133V24.6
				C511,10.093,499.907-1,485.4-1z M357.4,101.4v384c0,5.12-3.413,8.533-8.533,8.533H24.6c-5.12,0-8.533-3.413-8.533-8.533V75.8
				c0-5.12,3.413-8.533,8.533-8.533h68.267H370.2C362.52,76.653,357.4,88.6,357.4,101.4z M493.933,400.067
				c0,9.387-7.68,17.067-17.067,17.067s-17.067-7.68-17.067-17.067V101.4c0-28.16-23.04-51.2-51.2-51.2H101.4V24.6
				c0-5.12,3.413-8.533,8.533-8.533H485.4c5.12,0,8.533,3.413,8.533,8.533V400.067z"/>
			<path d="M408.6,92.867c-5.12,0-8.533,3.413-8.533,8.533v375.467c0,5.12,3.413,8.533,8.533,8.533s8.533-3.413,8.533-8.533V101.4
				C417.133,96.28,413.72,92.867,408.6,92.867z"/>
			<path d="M41.667,101.4v204.8c0,5.12,3.413,8.533,8.533,8.533h85.333c5.12,0,8.533-3.413,8.533-8.533V101.4
				c0-5.12-3.413-8.533-8.533-8.533H50.2C45.08,92.867,41.667,96.28,41.667,101.4z M58.733,109.933H127v187.733H58.733V109.933z"/>
			<path d="M186.733,127h136.533c5.12,0,8.533-3.413,8.533-8.533s-3.413-8.533-8.533-8.533H186.733c-5.12,0-8.533,3.413-8.533,8.533
				S181.613,127,186.733,127z"/>
			<path d="M186.733,169.667h136.533c5.12,0,8.533-3.413,8.533-8.533s-3.413-8.533-8.533-8.533H186.733
				c-5.12,0-8.533,3.413-8.533,8.533S181.613,169.667,186.733,169.667z"/>
			<path d="M186.733,212.333h136.533c5.12,0,8.533-3.413,8.533-8.533c0-5.12-3.413-8.533-8.533-8.533H186.733
				c-5.12,0-8.533,3.413-8.533,8.533C178.2,208.92,181.613,212.333,186.733,212.333z"/>
			<path d="M186.733,255h136.533c5.12,0,8.533-3.413,8.533-8.533s-3.413-8.533-8.533-8.533H186.733c-5.12,0-8.533,3.413-8.533,8.533
				S181.613,255,186.733,255z"/>
			<path d="M186.733,297.667h136.533c5.12,0,8.533-3.413,8.533-8.533s-3.413-8.533-8.533-8.533H186.733
				c-5.12,0-8.533,3.413-8.533,8.533S181.613,297.667,186.733,297.667z"/>
			<path d="M323.267,331.8h-85.333c-5.12,0-8.533,3.413-8.533,8.533V459.8c0,5.12,3.413,8.533,8.533,8.533h85.333
				c5.12,0,8.533-3.413,8.533-8.533V340.333C331.8,335.213,328.387,331.8,323.267,331.8z M314.733,451.267h-68.267v-102.4h68.267
				V451.267z"/>
			<path d="M101.4,340.333H50.2c-5.12,0-8.533,3.413-8.533,8.533V383c0,5.12,3.413,8.533,8.533,8.533h51.2
				c5.12,0,8.533-3.413,8.533-8.533v-34.133C109.933,343.747,106.52,340.333,101.4,340.333z M92.867,374.467H58.733V357.4h34.133
				V374.467z"/>
			<path d="M195.267,340.333h-51.2c-5.12,0-8.533,3.413-8.533,8.533s3.413,8.533,8.533,8.533h51.2c5.12,0,8.533-3.413,8.533-8.533
				S200.387,340.333,195.267,340.333z"/>
			<path d="M101.4,417.133H50.2c-5.12,0-8.533,3.413-8.533,8.533V459.8c0,5.12,3.413,8.533,8.533,8.533h51.2
				c5.12,0,8.533-3.413,8.533-8.533v-34.133C109.933,420.547,106.52,417.133,101.4,417.133z M92.867,451.267H58.733V434.2h34.133
				V451.267z"/>
			<path d="M195.267,417.133h-51.2c-5.12,0-8.533,3.413-8.533,8.533s3.413,8.533,8.533,8.533h51.2c5.12,0,8.533-3.413,8.533-8.533
				S200.387,417.133,195.267,417.133z"/>
			<path d="M144.067,391.533H178.2c5.12,0,8.533-3.413,8.533-8.533s-3.413-8.533-8.533-8.533h-34.133
				c-5.12,0-8.533,3.413-8.533,8.533S138.947,391.533,144.067,391.533z"/>
			<path d="M178.2,451.267h-34.133c-5.12,0-8.533,3.413-8.533,8.533c0,5.12,3.413,8.533,8.533,8.533H178.2
				c5.12,0,8.533-3.413,8.533-8.533C186.733,454.68,183.32,451.267,178.2,451.267z"/>
		</g>
	</g>
</g>
<g>
</g>
<g>
</g>
<g>
</g>
<g>
</g>
<g>
</g>
<g>
</g>
<g>
</g>
<g>
</g>
<g>
</g>
<g>
</g>
<g>
</g>
<g>
</g>
<g>
</g>
<g>
</g>
<g>
</g>
</svg>
